<?xml version="1.0" encoding="utf-8"?>
<!-- Svg Vector Icons : http://www.onlinewebfonts.com/icon -->
<!DOCTYPE svg PUBLIC "-//W3C//DTD SVG 1.1//EN" "http://www.w3.org/Graphics/SVG/1.1/DTD/svg11.dtd">
<svg version="1.1" xmlns="http://www.w3.org/2000/svg" xmlns:xlink="http://www.w3.org/1999/xlink" x="0px" y="0px" viewBox="0 0 1000 1000" enable-background="new 0 0 1000 1000" xml:space="preserve">
<metadata> Svg Vector Icons : http://www.onlinewebfonts.com/icon </metadata>
<g><g><path d="M500,10C229.8,10,10,229.8,10,500c0,270.2,219.8,490,490,490c270.2,0,490-219.8,490-490C990,229.8,770.2,10,500,10z M500,856.4c-196.5,0-356.3-159.9-356.3-356.4c0-196.5,159.8-356.4,356.3-356.4c196.5,0,356.4,159.9,356.4,356.4C856.4,696.5,696.4,856.4,500,856.4z M655.9,500c0,86.1-69.8,155.9-155.9,155.9c-86.1,0-155.9-69.8-155.9-155.9c0-86.1,69.8-155.9,155.9-155.9C586.1,344.1,655.9,413.9,655.9,500z"/></g><g></g><g></g><g></g><g></g><g></g><g></g><g></g><g></g><g></g><g></g><g></g><g></g><g></g><g></g><g></g></g>
</svg>